<svg xmlns:svg="http://www.w3.org/2000/svg" xmlns="http://www.w3.org/2000/svg" version="1.1" id="svg2" viewBox="0 0 25 20.77" height="20.77" width="25"><style>.s0{color-interpolation-filters:sRGB;}.s1{fill:#14ffb5;}</style><title id="title4282">Mountains</title><defs id="defs4"><filter id="filter4584" color-interpolation-filters="sRGB"><feFlood id="feFlood4586" result="flood" flood-color="rgb(0,0,0)" flood-opacity="0.5"/><feComposite id="feComposite4588" result="composite1" operator="in" in2="SourceGraphic" in="flood"/><feGaussianBlur id="feGaussianBlur4590" result="blur" stdDeviation="6.77" in="composite1"/><feOffset id="feOffset4592" result="offset" dy="0" dx="0"/><feComposite id="feComposite4594" result="fbSourceGraphic" operator="over" in2="offset" in="SourceGraphic"/><feColorMatrix id="feColorMatrix4596" values="0" in="fbSourceGraphic" result="fbSourceGraphicAlpha"/><feFlood in="fbSourceGraphic" result="flood" flood-color="rgb(0,0,0)" flood-opacity="0.5" id="feFlood4598"/><feComposite result="composite1" operator="in" in="flood" in2="fbSourceGraphic" id="feComposite4600"/><feGaussianBlur result="blur" stdDeviation="6.8" in="composite1" id="feGaussianBlur4602"/><feOffset result="offset" dy="0" dx="0" id="feOffset4604"/><feComposite result="composite2" operator="over" in="fbSourceGraphic" in2="offset" id="feComposite4606"/></filter><filter id="filter3450" color-interpolation-filters="sRGB"><feFlood id="feFlood3452" result="flood" flood-color="rgb(0,0,0)" flood-opacity="0.29"/><feComposite id="feComposite3454" result="composite1" operator="in" in2="SourceGraphic" in="flood"/><feGaussianBlur id="feGaussianBlur3456" result="blur" stdDeviation="7" in="composite1"/><feOffset id="feOffset3458" result="offset" dy="6" dx="6"/><feComposite id="feComposite3460" result="composite2" operator="over" in2="offset" in="SourceGraphic"/></filter><filter id="filter3462" color-interpolation-filters="sRGB"><feFlood id="feFlood3464" result="flood" flood-color="rgb(0,0,0)" flood-opacity="0.29"/><feComposite id="feComposite3466" result="composite1" operator="in" in2="SourceGraphic" in="flood"/><feGaussianBlur id="feGaussianBlur3468" result="blur" stdDeviation="7" in="composite1"/><feOffset id="feOffset3470" result="offset" dy="6" dx="6"/><feComposite id="feComposite3472" result="composite2" operator="over" in2="offset" in="SourceGraphic"/></filter></defs><metadata id="metadata7"/><g transform="translate(-0.24812212,-1029.219)" id="layer1"><g transform="matrix(0.05090637,0,0,0.05090637,-6.4065778,1015.6047)" id="g4274"><path d="m594.97 651.51-134.27 0-134.27 0 67.14-116.28 67.14-116.28 67.14 116.28z" id="path4140-9" style="fill:#fff;filter:url(#filter3462);stroke-linejoin:round;stroke-width:41.79;stroke:#fff"/><path d="m527.2 492.27c0 0-22.01 26.26-51.42 9.89-27.76-15.45-15.08-8.3-15.08-39.86 0-6.31 21.06 25.79-8.7 39.28-27.08 12.28-45.87 0.3-56-12.57 5.82-10.11 29.87-51.64 42.4-73 5.48-9.35 8.44-18.48 22.11-18.73 14.97-0.07 17.26 8.05 23.98 19.33 10.79 18.11 28.05 49.51 42.72 75.66z" id="path4160-9-7" fill="#14ffb5"/><path d="m484.17 647.56-160.66 0-160.66 0 80.33-139.13 80.33-139.13 80.33 139.13z" id="path4140" style="fill:#fff;filter:url(#filter3450);stroke-linejoin:round;stroke-width:50;stroke:#fff"/><path d="m403.09 457.02c0 0-26.33 31.42-61.53 11.83-33.22-18.49-18.04-9.93-18.04-47.69 0-7.55 25.19 30.85-10.42 47-32.41 14.69-54.89 0.36-67-15.03 6.96-12.1 35.74-61.79 50.73-87.34 6.56-11.19 10.09-22.11 26.45-22.4 17.91-0.08 20.65 9.63 28.69 23.12 12.9 21.67 33.56 59.24 51.12 90.52z" id="path4160-9" fill="#14ffb5"/><circle id="path4291" cx="430.1" cy="322.03" r="29.69" fill="#ff4c81"/><circle id="path4291-9" cx="432.02" cy="321.07" r="53.64" style="fill-opacity:0.47;fill:#ff4c81"/></g></g></svg>